<?xml version="1.0" encoding="utf-8"?>
<!-- Generator: Adobe Illustrator 24.1.0, SVG Export Plug-In . SVG Version: 6.00 Build 0)  -->
<svg version="1.1" id="Layer_1" xmlns="http://www.w3.org/2000/svg" xmlns:xlink="http://www.w3.org/1999/xlink" x="0px" y="0px"
	 viewBox="0 0 100 100" style="enable-background:new 0 0 100 100;" xml:space="preserve">
<style type="text/css">
	.st0{fill:#FFFFFF;}
</style>
<g>
	<path class="st0" d="M83.8,32.3L93,26c1.1-5.5,1.4-11.3,1.1-17.5c-0.2-1.5-1-1.7-1.6-1.7c-9.2,2.7-36.6,12.5-45.3,37.1
		c-0.3,1-4.3,13.9-13.6,13.9l0,0c-1.2,0-2.4-0.2-3.7-0.6c-2.2-0.8-4.8-1.3-7.2-1.3c-5.3,0-11.5,2.1-13.5,7.8c0.6,0.2,1.3,0.6,2,1.1
		c1-1.4,4.7-5.8,4.7-5.8l-0.3,4.7l-4.1,1.4c0.9,0.7,1.9,1.5,2.5,2.7c0.9-0.1,2-0.2,3.1-0.6l0.2-0.1c0.3-0.1,0.8-0.3,1.5-0.3
		c1.9,0,4.8,1.1,7.5,6.4l0.1,0.1c0,0,2.1,4.5,5.8,8.5c0.1-0.2,0.5-0.3,0.5-0.5l0,0c0,0,0.2-1.2,1.5-0.5c1.1,0.5,0.8,1.4,0.7,1.6
		c-0.2,0.6-0.6,1.2-0.8,1.7L34,85c-0.2,0.5-0.3,0.9-0.5,1.4c0,0.1-0.1,0.2-0.1,0.3c0,0.1-0.1,0.2-0.1,0.3c0,0.1,0,0.2-0.1,0.2
		l-0.5,1.2c-0.3-0.7-0.6-1.3-1-1.9v-0.1h-0.1c-0.2-0.3-0.4-0.5-0.7-0.8c-0.1-0.1-0.2-0.2-0.3-0.2c0-0.1,0.1-0.3,0.1-0.4
		c-0.4-0.4-0.9-0.9-1.2-1.3c-0.1,0.3-0.2,0.6-0.3,0.9c-0.6-0.2-1.2-0.3-1.9-0.3l0.1,2.2c-0.3-0.5-0.7-1-1.1-1.5
		c-1-0.9-2.2-1.4-3.7-1.4l0.1,2.9c0.6,0,1.1,0.2,1.5,0.6c0.2,0.2,0.3,0.3,0.5,0.5c-0.1,0-0.2,0.1-0.3,0.1c-1-0.6-2.1-1.1-3.2-1
		c-0.9,0-2.1,0.3-3.1,1.8l2.4,1.5c0.3-0.5,0.6-0.7,0.8-0.7l0,0c1.3,0,3.7,2.4,5,4.1l1.9,3.1l2.5-1.6l-1.4-2.2l0.1-0.2
		c0.7,0.6,1.3,1.4,1.8,2l0.2,0.2l1.6,2.5l2.5-1.6l-1.4-2.2l2.5-6.1c0,0,0-0.1,0.1-0.1l0.3-0.4c0.4-0.5,0.7-1.1,1.1-1.8
		c0.2-0.3,0.9-1,1.9-0.5c1,0.5,0.9,1.2,0.9,1.5c-0.2,0.4-0.5,0.9-0.7,1.3c0.8,0.3,1.6,0.5,2.4,0.6l0.7,0.1l0.4,0.7
		c0.1,0.2,2.4,4.5,0.8,9.7c0.9,0.1,1.7,0.3,3.8,0.4v-5.1c0-1,0.4-2.7,2.3,0.2c0.1,0.2,0.1,0.3,0.2,0.4l2.8,4.3
		c3.5-0.4,6.5-1.3,9.3-2.6c0.1-0.1,0.3-0.2,0.6-0.4c2.1-1,1.1-2,0.3-2.5c-6.3-2.3-15.6-7.9-15.1-20.6v-1.1l1-0.3
		c0,0,3.1-0.8,7.6-2.8l-1-3c-0.5-2.1,1.2-2,2.3-1.7l4.8,1.6c1.9-1.1,3.9-2.2,5.6-3.6L65.5,59c-3-2.1,0.5-1.8,2.1-1.6l5.8,1
		c3-2.5,5.8-5.2,8.2-8.1l-7-0.6c-3.2-0.6,1.6-2.9,2.3-3.2l9.3-2.6c1.6-2.7,3-5.6,4.2-8.5L85,36c-0.1,0-0.2,0-0.3,0
		C79.3,36.7,82.7,33.3,83.8,32.3z M28,87.8c-0.1-0.2-0.1-0.4-0.2-0.5c0.1,0,0.3,0,0.4,0.1L28,87.8z"/>
	<path class="st0" d="M7.2,70.6c0.8-0.9,2-1.9,3.5-2.4c-0.9-0.8-2-1.3-2.7-1.6C7.1,67.8,6.8,69.1,7.2,70.6z"/>
	<path class="st0" d="M40.1,51.3c2.8-3.5,4.3-8.1,4.3-8.2v-0.1c3.1-8.8,8.3-15.8,14.3-21.3c0.3-2.5-1.1-13.3-6.9-19.8
		c-0.8-0.7-1.3-0.4-1.6-0.1c-3.5,5.1-11.6,18.9-11.3,37.8c0.2,1,1.1,6.3-0.8,10.8l0.1-0.1C38.3,50.4,36.7,54.1,40.1,51.3z"/>
</g>
</svg>
