<?xml version="1.0" encoding="utf-8"?>
<!-- Generator: Adobe Illustrator 24.1.0, SVG Export Plug-In . SVG Version: 6.00 Build 0)  -->
<svg version="1.1" id="Layer_1" xmlns="http://www.w3.org/2000/svg" xmlns:xlink="http://www.w3.org/1999/xlink" x="0px" y="0px"
	 viewBox="0 0 1200 600" style="enable-background:new 0 0 1200 600;" xml:space="preserve">
<style type="text/css">
	.st0{fill:#6B9CC8;}
	.st1{fill:#355E92;}
	.st2{fill:#FFFFFF;}
	.st3{fill:#CBCCD4;}
	.st4{fill:#1C315E;}
</style>
<g>
	<g>
		<g>
			<path class="st0" d="M1180.6,113.4H598H15.4c-3.3,0-5.8,3.2-5.3,6.8c7.6,52.1,52.3,82.7,81.5,95.1h1012.8
				c29.2-12.4,74-43,81.5-95.1C1186.5,116.6,1183.9,113.4,1180.6,113.4z"/>
			<path class="st0" d="M188.4,293.3h819.1c22.7-8,61.9-26.7,79.1-65H109.3C126.5,266.6,165.8,285.3,188.4,293.3z"/>
			<path class="st0" d="M290.7,358.4c0.3,0.1,24.6,0.1,25,0.1c7.9,0,117.3,0.4,282.4,0.6c165-0.2,274.5-0.5,282.4-0.6
				c0.3,0,24.7,0,25-0.1c6.3-1.5,55.3-3.9,85.6-52H205.1C235.4,354.4,284.4,356.8,290.7,358.4z"/>
		</g>
		<path class="st1" d="M991,107.1C991,280.1,815,420.4,598,420.4c-217,0-393-140.3-393-313.4"/>
	</g>
	<g>
		<g>
			<path class="st2" d="M599.2,583.7c-4,0-8.1-1.7-13.3-5.5c-38.4-28.3-83.6-79.5-114.8-117.5c-33.8-41.2-58.8-76.2-59.1-76.5
				c-2.8-3-4.3-6.8-4.3-10.9V30.9c0-8.8,7.1-15.9,15.9-15.9h349.8c8.8,0,15.9,7.1,15.9,15.9v342.2c0,4.1-1.5,7.9-4.3,10.9
				c-1,1.4-99.4,140-172.4,194.1C607.4,582,603.2,583.7,599.2,583.7C599.2,583.7,599.2,583.7,599.2,583.7z"/>
			<path class="st3" d="M773.3,15.3c8.6,0,15.6,7,15.6,15.6v342.2c0,4-1.5,7.8-4.2,10.6l0,0l0,0c-0.2,0.3-25,35.3-58.5,76.5
				c-30.9,38-75.7,89.2-113.8,117.5c-5.1,3.8-9.2,5.5-13.1,5.5c-3.9,0-8-1.7-13.1-5.5c-38.4-28.2-83.6-79.5-114.8-117.5
				c-33.8-41.2-58.8-76.2-59.1-76.5l0,0l0,0c-2.7-2.9-4.2-6.7-4.2-10.6V30.9c0-8.6,7-15.6,15.6-15.6H773.3 M773.3,14.7H423.5
				c-9,0-16.3,7.3-16.3,16.3v342.2c0,4.1,1.6,8.1,4.4,11.1c0,0,99.6,139.4,174,194.1c5,3.7,9.2,5.6,13.5,5.6c4.2,0,8.4-1.8,13.5-5.6
				c73.9-54.8,172.5-194.1,172.5-194.1c2.8-3,4.4-7,4.4-11.1V30.9C789.6,21.9,782.3,14.7,773.3,14.7L773.3,14.7z"/>
		</g>
		<path class="st4" d="M423.5,14.7h349.8c9,0,16.2,7.3,16.2,16.3v342.2c0,4.1-1.6,8.1-4.4,11.1c0,0-30.7,43.4-70.7,91.3V197.2h-78.6
			l0,362.1c-7.9,7.1-15.7,13.5-23.2,19.1c-10.3,7.7-17.1,7.3-27.1,0c-8-5.9-16.3-12.8-24.7-20.3V197.2h-78.6l0,277.6
			c-40-47.6-70.7-90.5-70.7-90.5c-2.8-3-4.4-7-4.4-11.1V30.9C407.3,21.9,414.6,14.7,423.5,14.7z M468.7,87.2l-22.4,3.3l16.2,15.8
			l-3.8,22.3l20.1-10.6l20.1,10.6l-3.8-22.3l16.2-15.8l-22.4-3.3l-10-20.3L468.7,87.2z M708.1,87.2l-22.4,3.3l16.2,15.8l-3.8,22.3
			l20.1-10.6l20.1,10.6l-3.8-22.3l16.2-15.8l-22.4-3.3l-10-20.3L708.1,87.2z M581.9,85.8l-36.4,5.3l26.3,25.7l-6.2,36.2l32.5-17.1
			l32.5,17.1l-6.2-36.2l26.3-25.7l-36.4-5.3l-16.3-33L581.9,85.8z"/>
	</g>
</g>
</svg>
