<?xml version="1.0" encoding="utf-8"?>
<!-- Generator: Adobe Illustrator 24.1.0, SVG Export Plug-In . SVG Version: 6.00 Build 0)  -->
<svg version="1.1" id="Layer_1" xmlns="http://www.w3.org/2000/svg" xmlns:xlink="http://www.w3.org/1999/xlink" x="0px" y="0px"
	 viewBox="0 0 100 100" style="enable-background:new 0 0 100 100;" xml:space="preserve">
<style type="text/css">
	.st0{fill:#FFFFFF;}
</style>
<g>
	<path class="st0" d="M58.8,18.8c-2.7,0-5.4,0.2-8,0.7c-1.3,0.2-2.1,1.4-1.9,2.7c0.2,1.3,1.4,2.1,2.7,1.9c2.4-0.4,4.7-0.6,7.2-0.6
		c19.4,0,35.1,13.9,35.1,30.9c0,6.8-2.5,13.3-7.2,18.7c-0.5,0.5-0.7,1.3-0.5,2l2.2,11.4l-11.5-3.9c-0.5-0.2-1-0.2-1.5,0
		c-4.1,1.5-12.2,2.8-16.6,2.8c-19.4,0-35.1-13.9-35.1-30.9c0-1.3-1-2.3-2.3-2.3c-1.3,0-2.3,1-2.3,2.3c0,19.6,17.8,35.4,39.7,35.4
		c4.7,0,12.6-1.3,17.3-2.8l14.5,4.9c0.2,0.1,0.5,0.1,0.8,0.1c0.6,0,1.1-0.2,1.5-0.6c0.6-0.5,0.9-1.4,0.8-2.2l-2.7-14.2
		c4.9-6.1,7.6-13.3,7.6-20.7C98.5,34.8,80.7,18.8,58.8,18.8z"/>
	<path class="st0" d="M33.7,49.6c0.6,0.3,1.4,0.3,2-0.1c0.6-0.4,0.9-1.1,0.7-1.8l-2.1-12.2l8.8-8.7c0.5-0.5,0.7-1.2,0.5-1.9
		c-0.2-0.7-0.8-1.2-1.5-1.3l-12.3-2l-5.5-11.1c-0.3-0.6-1-1-1.7-1c-0.7,0-1.4,0.4-1.7,1l-5.5,11.1L3.3,23.7
		c-0.8,0.1-1.3,0.5-1.6,1.2c-0.2,0.7,0,1.4,0.5,1.9l8.8,8.7L9,47.6c-0.1,0.7,0.2,1.4,0.8,1.8c0.3,0.2,0.7,0.4,1.1,0.4
		c0.3,0,0.6-0.1,0.9-0.2l10.9-5.8L33.7,49.6z"/>
	<path class="st0" d="M76,40H41.8c-1.3,0-2.3,1-2.3,2.3s1,2.3,2.3,2.3H76c1.3,0,2.3-1,2.3-2.3C78.3,41,77.3,40,76,40z"/>
	<path class="st0" d="M78.3,54.1c0-1.3-1-2.3-2.3-2.3H41.8c-1.3,0-2.3,1-2.3,2.3c0,1.3,1,2.3,2.3,2.3H76
		C77.3,56.5,78.3,55.4,78.3,54.1z"/>
	<path class="st0" d="M41.8,63.8c-1.3,0-2.3,1-2.3,2.3c0,1.3,1,2.3,2.3,2.3h13.9c1.3,0,2.3-1,2.3-2.3c0-1.3-1-2.3-2.3-2.3H41.8z"/>
</g>
</svg>
