<?xml version="1.0" encoding="utf-8"?>
<!-- Generator: Adobe Illustrator 24.1.0, SVG Export Plug-In . SVG Version: 6.00 Build 0)  -->
<svg version="1.1" id="Layer_1" xmlns="http://www.w3.org/2000/svg" xmlns:xlink="http://www.w3.org/1999/xlink" x="0px" y="0px"
	 viewBox="0 0 100 100" style="enable-background:new 0 0 100 100;" xml:space="preserve">
<style type="text/css">
	.st0{fill:none;}
	.st1{fill:#FFFFFF;}
</style>
<rect class="st0" width="100" height="100"/>
<circle class="st1" cx="17.4" cy="37.4" r="10.2"/>
<path class="st1" d="M26.8,77.6c2.6,0,4.7-2.1,4.7-4.7c0-0.1,0-0.1,0-0.2c-0.4-9.8,0.7-9.6,6.4-13.2c4.7-3,6.3-11.1,8.5-21.2
	c1.5-6.7-6.7-8.6-8.1-2.4c-3.4,14.8-2.7,15.2-17,15.2c-2.9,0-5.9,0.2-8.8,0.7C0.1,53.1,1.8,62.7,2.5,73.2c0.2,2.5,2.2,4.4,4.7,4.4
	H26.8z"/>
<path class="st1" d="M44.6,28c-0.4,0-0.8-0.2-1-0.5l-3.5-4.6c-0.4-0.5-0.4-1.3,0.2-1.7c0.5-0.4,1.3-0.4,1.7,0.2c0,0,0.1,0.1,0.1,0.1
	l3.5,4.7c0.4,0.5,0.3,1.3-0.2,1.7c0,0,0,0,0,0C45.1,27.9,44.9,28,44.6,28z"/>
<path class="st1" d="M44.6,28.2c-0.4,0-0.9-0.2-1.1-0.6L40,23c-0.2-0.3-0.3-0.7-0.2-1c0.1-0.4,0.3-0.7,0.6-0.9
	c0.3-0.2,0.6-0.3,1-0.3c0.4,0.1,0.7,0.3,0.9,0.6l3.5,4.6c0.2,0.3,0.3,0.6,0.2,1C45.9,27.7,45.3,28.2,44.6,28.2L44.6,28.2z
	 M41.2,21.2c-0.6,0-1,0.5-1,1c0,0.2,0.1,0.4,0.2,0.6l3.5,4.7c0.3,0.4,0.9,0.5,1.4,0.2c0.2-0.2,0.4-0.4,0.4-0.6c0-0.3,0-0.5-0.2-0.7
	L42,21.6c-0.2-0.2-0.4-0.4-0.7-0.4L41.2,21.2z"/>
<path class="st1" d="M50.9,28c-0.3,0-0.5-0.1-0.7-0.2c-0.5-0.4-0.7-1.1-0.3-1.7c0,0,0,0,0,0l3.5-4.7c0.4-0.5,1.2-0.6,1.7-0.2
	c0.5,0.4,0.6,1.1,0.2,1.6l-3.5,4.6C51.6,27.8,51.2,28,50.9,28z"/>
<path class="st1" d="M50.9,28.2c-0.3,0-0.6-0.1-0.9-0.2c-0.6-0.5-0.8-1.3-0.3-2c0,0,0,0,0,0l3.4-4.6c0.2-0.3,0.6-0.5,0.9-0.6
	c0.4-0.1,0.8,0,1.1,0.3c0.6,0.5,0.8,1.4,0.3,2c0,0,0,0,0,0L52,27.7C51.7,28,51.3,28.2,50.9,28.2z M54.3,21.2h-0.1
	c-0.3,0-0.5,0.2-0.7,0.4l-3.5,4.6c-0.3,0.4-0.2,1.1,0.2,1.4c0.4,0.3,1.1,0.2,1.4-0.2v0l3.4-4.7c0.3-0.4,0.2-1.1-0.2-1.4
	C54.7,21.2,54.5,21.2,54.3,21.2z"/>
<path class="st1" d="M80.9,47c-6.2,0-11.3-5.1-11.3-11.3s5.1-11.3,11.3-11.3c6.2,0,11.3,5.1,11.3,11.3c0,0,0,0,0,0
	C92.2,41.9,87.2,47,80.9,47z M80.9,27.7c-4.4,0-8,3.6-8,8c0,4.4,3.6,8,8,8s8-3.6,8-8l0,0C88.9,31.3,85.4,27.7,80.9,27.7L80.9,27.7z"
	/>
<path class="st1" d="M91.2,79.3H71.5c-3.5,0-6.3-2.8-6.3-6.3c0-0.1,0-0.2,0-0.3c0.3-8,0-8.2-4.2-10.8L59.6,61c-5.1-3.2-6.8-11-9-21
	l-0.3-1.3c-1-4.4,1.5-7.4,4.4-8.1c2.8-0.6,6,0.9,7,5l0.5,2.2c1.3,5.8,2,9,3.7,10.3s5.2,1.4,11.3,1.4c2.4,0,4.8,0.1,7.1,0.5l1.8,0.2
	c13,1.4,12.3,11.3,11.6,20.9c-0.1,0.7-0.1,1.5-0.2,2.2C97.3,76.7,94.5,79.3,91.2,79.3z M56,33.8c-0.2,0-0.3,0-0.5,0
	c-1.3,0.3-2.4,1.7-1.9,4.1l0.3,1.3c1.9,8.8,3.6,16.4,7.5,18.9l1.3,0.8c5.3,3.2,6.2,4.6,5.9,13.8c-0.1,1.7,1.2,3.1,2.9,3.1
	c0,0,0.1,0,0.1,0h19.6c1.6,0,2.9-1.2,3-2.8c0-0.8,0.1-1.5,0.2-2.3c0.8-10.7,0.8-16.3-8.6-17.3c-0.7-0.1-1.3-0.1-1.9-0.2
	c-2.2-0.3-4.5-0.5-6.7-0.4c-14.6,0-15.2-1-18.2-14.3l-0.5-2.2C58,34.5,56.9,33.8,56,33.8z"/>
</svg>
