<?xml version="1.0" encoding="utf-8"?>
<!-- Generator: Adobe Illustrator 24.1.0, SVG Export Plug-In . SVG Version: 6.00 Build 0)  -->
<svg version="1.1"
	 id="Layer_1" xmlns:cc="http://creativecommons.org/ns#" xmlns:dc="http://purl.org/dc/elements/1.1/" xmlns:inkscape="http://www.inkscape.org/namespaces/inkscape" xmlns:rdf="http://www.w3.org/1999/02/22-rdf-syntax-ns#" xmlns:sodipodi="http://sodipodi.sourceforge.net/DTD/sodipodi-0.dtd" xmlns:svg="http://www.w3.org/2000/svg"
	 xmlns="http://www.w3.org/2000/svg" xmlns:xlink="http://www.w3.org/1999/xlink" x="0px" y="0px" viewBox="0 0 100 100"
	 style="enable-background:new 0 0 100 100;" xml:space="preserve">
<style type="text/css">
	.st0{fill:#FFFFFF;}
</style>
<g>
	<path class="st0" d="M72.4,9.4c-6.8,0.4-12.8,4.9-15.1,11.5c-1.3,3.8,4.3,6,5.9,2.1c1.7-4.8,6.4-7.8,11.5-7.3
		c5.1,0.6,9.1,4.5,9.7,9.6c0.6,5.1-2.3,9.9-7.2,11.6c-3.9,1.5-1.8,7.2,2.1,5.9c7.5-2.7,12.2-10.3,11.3-18.2
		c-0.9-7.9-7.3-14.2-15.2-15C74.3,9.4,73.3,9.3,72.4,9.4L72.4,9.4z M71.8,25c-0.3,0-0.6,0.1-0.9,0.2L11.5,45c-1.6,0.6-2.5,2.3-2,4
		c0.3,0.8,0.8,1.4,1.5,1.8l25.4,12.7l12.7,25.5c0.8,1.5,2.6,2.2,4.2,1.4c0.7-0.4,1.3-1,1.6-1.8l19.8-59.4c0.5-1.6-0.3-3.4-2-3.9
		C72.4,25.1,72.1,25,71.8,25L71.8,25z"/>
</g>
</svg>
