<?xml version="1.0" encoding="utf-8"?>
<!-- Generator: Adobe Illustrator 24.1.0, SVG Export Plug-In . SVG Version: 6.00 Build 0)  -->
<svg version="1.1" id="Layer_1" xmlns="http://www.w3.org/2000/svg" xmlns:xlink="http://www.w3.org/1999/xlink" x="0px" y="0px"
	 viewBox="0 0 100 100" style="enable-background:new 0 0 100 100;" xml:space="preserve">
<style type="text/css">
	.st0{fill:#FFFFFF;}
</style>
<g>
	<path class="st0" d="M68.8,53.5c0.7,0,1.4-0.2,2-0.8l10.9-10.9c1.1-1.1,1.1-2.8,0-3.8c-1.1-1.1-2.8-1.1-3.8,0l-9.1,9l-3.6-3.6
		c-1.1-1.1-2.8-1.1-3.8,0c-1.1,1.1-1.1,2.8,0,3.8l5.5,5.5C67.3,53.3,68,53.5,68.8,53.5z"/>
	<path class="st0" d="M54.5,39.8c-2.9-13.4-15.7-22.4-29.3-20.7C11.7,20.8,2,32.6,2.2,45.7c0,1.2-0.3,25.9-0.4,34.1
		c0,1.1,1.2,1.7,2.1,1.1l15.5-10.9c4.5,1.6,9.2,2.1,13.9,1.3C48,68.8,57.7,54.5,54.5,39.8z M30.3,57.3c-0.4,0.5-1,0.7-1.6,0.7
		c-1.2,0-2.3-1-2.3-2.3c0-1.2,1-2.3,2.3-2.3c1.3,0,2.3,0.9,2.3,2.2C30.9,56.3,30.8,57,30.3,57.3z M32.8,44.5L32,45.1
		c-0.7,0.6-1.4,1.2-1.5,2.3c-0.1,0.8-0.1,1.6-0.1,2.4c0,0.2,0,0.3-0.1,0.4c0,0-0.1,0.1-0.4,0.1c-0.2,0-0.4,0-0.5,0h-0.9
		c-0.5,0-1.2,0-1.7,0c-0.2,0-0.3-0.1-0.3-0.3c-0.1-1.7,0-3.7,0.6-5.1c0.5-1,1.3-1.7,2.2-2.3c0.7-0.5,1.3-1,1.9-1.7
		c0.9-1.3,0.8-2.3,0.5-3c-0.5-1-1.7-1.6-3-1.6c-1.7,0-3,1-3.6,2.7c-0.2,0.5-0.2,0.6-0.5,0.6c-0.2,0-0.2,0-0.5,0
		c-0.9-0.2-1.9-0.2-2.9-0.4c-0.3,0-0.4-0.2-0.4-0.4c0.4-4.1,4.3-6.2,8-6.2c2.1,0,4.1,0.7,5.5,1.9c1.3,1.2,2.1,2.7,2.1,4.4
		C36.4,41.2,34.5,42.9,32.8,44.5z"/>
	<path class="st0" d="M97.8,45.7c0.2-13.1-9.5-24.9-23.1-26.6c-8-1-15.7,1.6-21.3,6.7c1.1,1.3,2,2.8,2.9,4.3c4.5-4.5,11-6.9,17.7-6
		c10.8,1.4,18.8,10.6,18.7,21.6c0,0.9,0.2,15.9,0.3,26.9l-11.6-8.1l-2.5,0.9c-3.5,1.3-7.4,1.7-11.2,1c-4.4-0.7-8.3-2.7-11.3-5.8
		c-0.5,0.8-0.9,1.6-1.5,2.3c-0.5,0.6-0.9,1.3-1.4,2c3.6,3.3,8.1,5.6,13.3,6.6c4.7,0.8,9.5,0.4,13.9-1.3l15.5,10.9
		c0.9,0.6,2.1,0,2.1-1.1C98.1,71.6,97.8,46.9,97.8,45.7z"/>
</g>
</svg>
