<?xml version="1.0" encoding="utf-8"?>
<!-- Generator: Adobe Illustrator 24.1.0, SVG Export Plug-In . SVG Version: 6.00 Build 0)  -->
<svg version="1.1" id="Layer_1" xmlns="http://www.w3.org/2000/svg" xmlns:xlink="http://www.w3.org/1999/xlink" x="0px" y="0px"
	 viewBox="0 0 100 100" style="enable-background:new 0 0 100 100;" xml:space="preserve">
<style type="text/css">
	.st0{fill:#FFFFFF;}
</style>
<polygon class="st0" points="29.7,71.9 14.1,71.9 14.1,68.8 26.6,68.8 26.6,62.5 29.7,62.5 "/>
<polygon class="st0" points="26.6,62.5 15,62.5 10.3,57.8 4.7,57.8 4.7,54.7 11.6,54.7 16.3,59.4 26.6,59.4 "/>
<rect x="23.4" y="79.7" class="st0" width="9.4" height="3.1"/>
<polygon class="st0" points="45.3,90.6 42.2,90.6 42.2,74.4 45.3,71.2 45.3,60.9 48.4,60.9 48.4,72.5 45.3,75.6 "/>
<polygon class="st0" points="42.6,76.1 35.9,69.4 35.9,50 39.1,50 39.1,68.1 44.9,73.9 "/>
<rect x="26.6" y="50" class="st0" width="3.1" height="9.4"/>
<polygon class="st0" points="74.1,65.6 62.5,65.6 62.5,62.5 72.8,62.5 77.5,57.8 89.1,57.8 89.1,60.9 78.8,60.9 "/>
<polygon class="st0" points="71.9,85.9 68.8,85.9 68.8,73.4 82.8,73.4 82.8,76.6 71.9,76.6 "/>
<polygon class="st0" points="59.4,89.1 56.2,89.1 56.2,75.9 59.4,72.8 59.4,65.6 62.5,65.6 62.5,74.1 59.4,77.2 "/>
<polygon class="st0" points="62.5,62.5 59.4,62.5 59.4,55.6 67.6,47.3 69.9,49.5 62.5,56.9 "/>
<rect x="89.1" y="50" class="st0" width="3.1" height="7.8"/>
<rect x="45.3" y="50" class="st0" width="3.1" height="7.8"/>
<circle class="st0" cx="28.1" cy="60.9" r="3.1"/>
<circle class="st0" cx="46.9" cy="59.4" r="3.1"/>
<circle class="st0" cx="60.9" cy="64.1" r="3.1"/>
<circle class="st0" cx="57.8" cy="90.6" r="3.1"/>
<circle class="st0" cx="90.6" cy="59.4" r="3.1"/>
<circle class="st0" cx="84.4" cy="75" r="3.1"/>
<circle class="st0" cx="70.3" cy="87.5" r="3.1"/>
<circle class="st0" cx="43.8" cy="92.2" r="3.1"/>
<circle class="st0" cx="12.5" cy="70.3" r="3.1"/>
<circle class="st0" cx="21.9" cy="81.2" r="3.1"/>
<circle class="st0" cx="34.4" cy="81.2" r="3.1"/>
<path class="st0" d="M69.5,17.1c-3.8-4.9-8.4-8.4-13.5-9.9c1.8,2.7,3.3,6.5,4.6,11.1C63.8,18,66.8,17.6,69.5,17.1z"/>
<path class="st0" d="M60.1,34c-0.5-4.7-1.2-8.8-2-12.4c-2.7,0.2-5.4,0.3-8.1,0.3s-5.4-0.1-8.1-0.3c-0.8,3.6-1.5,7.7-2,12.4
	c3.3,0.3,6.7,0.4,10.1,0.4S56.8,34.2,60.1,34z"/>
<path class="st0" d="M38.3,6.2c-6.2,1.7-11.9,4.6-16.8,8.5c1.7,0.6,3.6,1.1,5.6,1.6C30.3,12,34.1,8.5,38.3,6.2z"/>
<path class="st0" d="M50,37.5c-3.6,0-7.1-0.1-10.4-0.4c-0.3,4-0.5,8.3-0.5,12.9h21.9c0-4.6-0.2-8.9-0.5-12.9
	C57.1,37.4,53.6,37.5,50,37.5z"/>
<path class="st0" d="M30.5,17.1c2.8,0.5,5.8,0.9,9,1.2c1.2-4.6,2.7-8.5,4.6-11.2C38.9,8.7,34.3,12.2,30.5,17.1z"/>
<path class="st0" d="M36.8,33.7c0.5-4.4,1.1-8.6,2-12.4c-3.6-0.3-7-0.8-10.2-1.5c-2.2,3.4-4,7.3-5.4,11.6
	C27.3,32.5,31.9,33.2,36.8,33.7z"/>
<path class="st0" d="M50,18.8c2.5,0,5-0.1,7.3-0.2c-2.2-7.9-5-12.3-7.3-12.3s-5.1,4.4-7.3,12.3C45,18.7,47.5,18.8,50,18.8z"/>
<path class="st0" d="M9.2,30.3c-2.9,6-4.5,12.6-4.5,19.7h12.5c0-5.7,0.7-11.2,2-16.2C15.5,32.8,12.2,31.6,9.2,30.3z"/>
<path class="st0" d="M63.5,36.8c0.4,4.3,0.6,8.8,0.6,13.2h15.6c0-5.4-0.7-10.7-1.9-15.5C73.4,35.6,68.6,36.3,63.5,36.8z"/>
<path class="st0" d="M81.1,17.1c-1.9,0.8-4.1,1.5-6.5,2c2.1,3.5,3.9,7.4,5.2,11.6c3.5-0.9,6.6-2,9.4-3.2
	C87.1,23.7,84.3,20.1,81.1,17.1z"/>
<path class="st0" d="M80.8,33.8c1.3,5.1,2,10.5,2,16.2h12.5c0-7.1-1.6-13.7-4.5-19.7C87.8,31.6,84.5,32.8,80.8,33.8z"/>
<path class="st0" d="M71.5,19.8c-3.2,0.7-6.7,1.2-10.2,1.5c0.8,3.8,1.5,8,2,12.4c4.8-0.5,9.4-1.3,13.7-2.2
	C75.5,27.2,73.7,23.2,71.5,19.8z"/>
<path class="st0" d="M61.7,6.2c4.2,2.3,8,5.8,11.1,10.2c2.1-0.5,3.9-1,5.6-1.6C73.6,10.8,67.9,7.9,61.7,6.2z"/>
<path class="st0" d="M36.5,36.8c-5.1-0.5-9.9-1.3-14.3-2.3c-1.2,4.8-1.9,10-1.9,15.5h15.6C35.9,45.6,36.1,41.2,36.5,36.8z"/>
<path class="st0" d="M25.3,19.1c-2.3-0.6-4.5-1.3-6.5-2c-3.2,3.1-6,6.6-8.2,10.5c2.8,1.2,6,2.3,9.4,3.2
	C21.4,26.5,23.2,22.6,25.3,19.1z"/>
</svg>
