<?xml version="1.0" encoding="utf-8"?>
<!-- Generator: Adobe Illustrator 24.1.0, SVG Export Plug-In . SVG Version: 6.00 Build 0)  -->
<svg version="1.1" id="Layer_1" xmlns="http://www.w3.org/2000/svg" xmlns:xlink="http://www.w3.org/1999/xlink" x="0px" y="0px"
	 viewBox="0 0 100 100" style="enable-background:new 0 0 100 100;" xml:space="preserve">
<style type="text/css">
	.st0{fill:#FFFFFF;stroke:#FFFFFF;stroke-width:0.25;stroke-miterlimit:10;}
	.st1{fill:#FFFFFF;}
</style>
<path class="st0" d="M87,75c-0.1,1.8-0.9,2.2-1.4,2.2c-0.6-0.3-1-1.6-1.7-2c-0.3-0.2-0.6-0.5-0.9-0.7L87,75z"/>
<path class="st1" d="M87.1,75.2L83,74.7l0,0c-1.6-1.5-2.1-3.2-2.4-4.2c-0.1-0.3-0.1-0.5-0.2-0.6c-0.1-0.4-0.2-0.7-0.4-1L80,68.7
	l5.3,0.7l0,0.1c0,0.1,0,0.2,0,0.2c1.1,0.9,1.4,1.9,1.6,2.7c0,0.1,0.1,0.2,0.1,0.3c0.2,0.9,0.3,1.8,0.3,2.4L87.1,75.2z M83.1,74.4
	l3.8,0.5c0-0.6-0.1-1.4-0.3-2.2c0-0.1-0.1-0.2-0.1-0.3c-0.2-0.8-0.5-1.7-1.6-2.6l-0.1,0l0-0.1c0,0,0-0.1,0-0.1L80.4,69
	c0.1,0.2,0.2,0.5,0.3,0.8c0.1,0.1,0.1,0.3,0.2,0.6C81.1,71.4,81.6,73,83.1,74.4z"/>
<path class="st0" d="M38,26.7l0.1,0.7l0.9,0.3l-0.8,0.9l0,1.4l-0.8-0.8l-0.9,0.5l0.3-1.4l-0.6-1.1l1-0.1l0.3-0.6
	c-1.5-0.1-3.1-0.3-4.8-0.4l0.1,0.5l1,0.3L33,28l0,1.4l-0.8-0.8l-0.9,0.6l0.3-1.4L31,26.7l1-0.1l0.2-0.5c-1.5-0.2-3.1-0.4-4.6-0.6
	l0.1,0.5l1,0.3l-0.8,0.9l0,1.4L27,28l-1,0.6l0.4-1.4l-0.6-1.1l1-0.1l0.2-0.5c-1.5-0.2-3.1-0.5-4.7-0.9l0.2,0.9l1,0.3l-0.8,0.9l0,1.4
	l-0.8-0.8l-1,0.6l0.4-1.4l-0.6-1.1l1-0.1l0.4-0.8c-1.6-0.3-3.2-0.7-4.9-1.1l0.3,1.3l0.9,0.3l-0.8,0.9l0,1.4l-0.8-0.8l-1,0.6l0.4-1.4
	l-0.6-1.1l1-0.1l0.6-1.2c-1.6-0.4-3.1-0.8-4.8-1.3c-0.1,0.2-0.1,0.5-0.2,0.9l0.2,1.1l1,0.3l-0.8,0.9l0,1.4L11.8,26l-0.9,0.6l0.4-1.4
	l-0.6-1.1l1-0.1l0.1-0.3c-0.4,0-0.9-0.2-1.9-1.3c0,0,0.4,6.3-3.4,12.3c-0.2,0.8-0.2,3.5-0.5,4c-0.2,0.4-1.3,1.5-1.2,1.8
	c0.1,0.5,1.1,0.7,0.5,3l32.1,4l2.5-20.6C39.3,26.8,38.6,26.8,38,26.7z M34.2,29.6l0.6-1.2l0.3,1.4l1,0.3L35.2,31l0,1.4l-0.8-0.8
	l-1,0.6l0.3-1.4l-0.6-1.1L34.2,29.6z M32,38.7l1-0.1l0.6-1.2l0.3,1.3l0.9,0.3L34,40l0,1.4l-0.8-0.8l-1,0.6l0.3-1.4L32,38.7z
	 M29.4,39.3l1-0.1L31,38l0.3,1.3l0.9,0.3l-0.8,0.9l0,1.4l-0.8-0.8l-1,0.6l0.4-1.4L29.4,39.3z M26.9,38.1l1-0.1l0.6-1.2l0.3,1.3
	l0.9,0.3l-0.8,0.9l0,1.4L28,40l-0.9,0.6l0.4-1.4L26.9,38.1z M24.2,38.7l1-0.1l0.6-1.2l0.3,1.3l1,0.3l-0.8,0.9l0,1.4l-0.8-0.8l-1,0.6
	l0.4-1.4L24.2,38.7z M21.8,37.5l1-0.1l0.6-1.2l0.3,1.3l0.9,0.3l-0.8,0.9l0,1.4L23,39.4L22,40l0.4-1.4L21.8,37.5z M19,38.1l1-0.1
	l0.6-1.2l0.3,1.3l0.9,0.3L21,39.4l0,1.4L20.2,40l-1,0.6l0.4-1.4L19,38.1z M16.5,36.8l1-0.1l0.6-1.2l0.3,1.3l0.9,0.3l-0.8,0.9l0,1.4
	l-0.8-0.8l-1,0.5l0.3-1.4L16.5,36.8z M13.9,37.4l1-0.1l0.6-1.2l0.3,1.3l0.9,0.3l-0.8,0.9l0,1.4l-0.8-0.8l-1,0.6l0.4-1.4L13.9,37.4z
	 M11.5,36l1-0.1l0.6-1.2l0.3,1.3l0.9,0.3l-0.8,0.9l0,1.4L12.7,38l-1,0.6l0.4-1.4L11.5,36z M12.1,31.6l1-0.1l0.6-1.2l0.3,1.4l0.9,0.3
	l-0.8,0.9l0,1.4l-0.8-0.8l-0.9,0.6l0.4-1.4L12.1,31.6z M19.4,33.9l1-0.1l0.6-1.2l0.3,1.3l1,0.3l-0.8,0.9l0,1.4l-0.8-0.8l-0.9,0.6
	L20,35L19.4,33.9z M19.1,33.5l0,1.4l-0.8-0.8l-1,0.5l0.4-1.4l-0.6-1.1l1-0.1l0.6-1.2l0.3,1.3l0.9,0.3L19.1,33.5z M17.1,33.5
	l-0.8,0.9l0,1.4l-0.8-0.8l-1,0.6l0.4-1.4l-0.6-1.1l1-0.1l0.6-1.2l0.3,1.3L17.1,33.5z M24.6,34.5l1-0.1l0.6-1.2l0.3,1.3l1,0.3
	l-0.8,0.9l0,1.4l-0.8-0.8l-1,0.6l0.4-1.4L24.6,34.5z M24.2,34.2l0,1.4l-0.8-0.8l-1,0.6l0.4-1.4l-0.6-1.1l1-0.1l0.6-1.2l0.3,1.3
	l0.9,0.3L24.2,34.2z M29.8,35.1l1-0.1l0.6-1.2l0.3,1.3l1,0.3l-0.8,0.9l0,1.4l-0.8-0.8l-1,0.5l0.4-1.4L29.8,35.1z M29.4,34.9l0,1.4
	l-0.8-0.8l-0.9,0.6l0.4-1.4l-0.6-1.1l1-0.1l0.6-1.2l0.3,1.3l1,0.3L29.4,34.9z M34.6,35.6l0,1.4l-0.8-0.8l-1,0.6l0.4-1.4l-0.6-1.1
	l1-0.1l0.6-1.2l0.3,1.3l1,0.3L34.6,35.6z M31.4,30.7l0.6-1.2l0.3,1.4l0.9,0.3L32.3,32l0,1.4l-0.8-0.8l-1,0.6l0.4-1.4l-0.6-1.1
	L31.4,30.7z M29,28.9l0.6-1.2l0.3,1.3l0.9,0.3L30,30.2l0,1.4l-0.8-0.8l-1,0.6l0.4-1.4L28,29L29,28.9z M26.2,30l0.6-1.2l0.3,1.4
	l0.9,0.3l-0.8,0.9l0,1.4L26.4,32l-1,0.6l0.4-1.4l-0.6-1.1L26.2,30z M23.8,28.3l0.6-1.2l0.3,1.3l1,0.3l-0.8,0.9l0,1.4L24,30.3l-1,0.5
	l0.4-1.4l-0.6-1.1L23.8,28.3z M21,29.4l0.6-1.2l0.3,1.4l0.9,0.3L22,30.8l0,1.4l-0.8-0.8l-1,0.6l0.4-1.4L20,29.5L21,29.4z M18.7,27.7
	l0.6-1.2l0.3,1.3l1,0.3L19.7,29l0,1.4l-0.8-0.8l-1,0.6l0.4-1.4l-0.6-1.1L18.7,27.7z M15.9,28.7l0.6-1.2l0.3,1.4l1,0.3l-0.8,0.9
	l0,1.4l-0.8-0.8l-0.9,0.6l0.3-1.4l-0.6-1.1L15.9,28.7z M13.7,27l0.6-1.2l0.3,1.4l0.9,0.3l-0.8,0.9l0,1.4L13.9,29L13,29.6l0.4-1.4
	l-0.6-1.1L13.7,27z M10.9,28l0.6-1.2l0.3,1.3l1,0.3l-0.8,0.9l0,1.4L11.1,30l-0.9,0.6l0.4-1.4l-0.6-1.1L10.9,28z M10.3,32.4l0.6-1.2
	l0.3,1.3l0.9,0.3l-0.8,0.9l0,1.4l-0.8-0.8l-1,0.5l0.4-1.4l-0.6-1.1L10.3,32.4z M9.9,36.6l0.6-1.2l0.3,1.3l0.9,0.3l-0.8,0.9l0,1.4
	l-0.8-0.8l-0.9,0.6l0.4-1.4l-0.6-1.1L9.9,36.6z M10.4,42.3l0,1.4l-0.8-0.8l-1,0.6L9,42.1L8.4,41l1-0.1l0.6-1.2l0.3,1.3l0.9,0.3
	L10.4,42.3z M12.9,42.7L12.2,42l-1,0.6l0.4-1.4L11,40l1-0.1l0.6-1.2l0.3,1.3l0.9,0.3L13,41.3L12.9,42.7z M15.4,43l0,1.4l-0.8-0.8
	l-1,0.6l0.4-1.4l-0.6-1.1l1-0.1l0.6-1.2l0.3,1.3l0.9,0.3L15.4,43z M18,43.4l-0.8-0.8l-1,0.6l0.4-1.4L16,40.7l1-0.1l0.6-1.2l0.3,1.3
	l0.9,0.3L18,41.9L18,43.4z M20.5,43.7l0,1.4l-0.8-0.8l-1,0.6l0.4-1.4l-0.6-1.1l1-0.1l0.6-1.2l0.3,1.3l1,0.3L20.5,43.7z M23.3,44.1
	l-0.8-0.8l-1,0.6l0.4-1.4l-0.6-1.1l1-0.1l0.6-1.2l0.3,1.3l1,0.3l-0.8,0.9L23.3,44.1z M25.6,44.3l0,1.4l-0.8-0.8l-1,0.6l0.4-1.4
	L23.6,43l1-0.1l0.6-1.2l0.3,1.3l1,0.3L25.6,44.3z M28.4,44.8L27.6,44l-1,0.6l0.3-1.4l-0.6-1.1l1-0.1l0.6-1.2l0.3,1.3l0.9,0.3
	l-0.8,0.9L28.4,44.8z M30.8,45l0,1.4L30,45.6l-1,0.6l0.4-1.4l-0.6-1.1l1-0.1l0.6-1.2l0.3,1.3l1,0.3L30.8,45z M33.5,45.6l-0.8-0.8
	l-1,0.6l0.3-1.4l-0.6-1.1l1-0.1l0.6-1.2l0.3,1.3l0.9,0.3l-0.8,0.9L33.5,45.6z M36,45.6l0,1.4l-0.8-0.8l-1,0.6l0.4-1.4L34,44.3l1-0.1
	l0.6-1.2l0.3,1.3l0.9,0.3L36,45.6z M36.5,41.2l0,1.4l-0.8-0.8l-1,0.5l0.4-1.4L34.5,40l1-0.1l0.6-1.2l0.3,1.3l0.9,0.3L36.5,41.2z
	 M37,37.1l0,1.4l-0.8-0.8l-1,0.6l0.3-1.4L35,35.8l1-0.1l0.6-1.2l0.3,1.3l1,0.3L37,37.1z M37.6,32.7l0,1.4l-0.8-0.8l-1,0.6l0.3-1.4
	l-0.6-1.1l1-0.1l0.6-1.2l0.3,1.4l0.9,0.3L37.6,32.7z"/>
<path class="st1" d="M70.9,31.3c-0.6,0.3-1.7,0.5-3.4,1.2c-0.9,0.3-1.1,1.5-1.2,3l-27-3.3l0.6-5.3l20.5,2.5
	c-0.5,0.5-0.9,1.1-1.1,1.4c1.9,1.2,3.4-0.3,4.4-0.7c1.3-0.1,2.3,1,2.7,1c0.3-0.4,0.9-0.6,1.5-0.8l2.9,0.4
	C71.2,30.9,71.2,31.2,70.9,31.3z"/>
<path class="st1" d="M74.9,36.5l-6.5-0.8c0.1-2,1.7-3,2.1-3.7c2.1,0.1,2.1,1.3,2.5,2.3c-0.6,1.3-0.5,1.6-0.1,1.8
	c0.7-0.8,1.1-0.9,1.5-0.5C74.6,36,74.7,36.3,74.9,36.5z"/>
<path class="st1" d="M95.7,34.4l-1.6,1.2c0,0-1,0.8-1.3,1.4c-0.1,0.7-0.7,1.2-1.2,1.6L80,37.1c0.3-0.3,0.5-0.6,0.6-0.9
	c-1.8-1.7,2.5-2.3,3-2.6c0.1-0.4,0.3-0.9,0.5-1.3l9.5,1.2c0.4,0.8,1.5,0.4,1.5,0.4L95.7,34.4z"/>
<path class="st1" d="M88.1,53.8c-0.4,0.5-0.9,1.7-1.3,2c-1.2,0.5-1.1,1.7-1.5,2.5c-0.2,0.1-0.4,0.2-0.5,0.4L6.3,49.1
	c-0.2-0.2-0.3-0.4-0.4-0.6c0.5-2.5-0.7-4-0.8-4.5c0.1-0.1,0.1-0.3,0.1-0.4L88.1,53.8z"/>
<path class="st1" d="M97.6,26.1c0,0-1,1.3-1.8,2.3l-5.2-0.6c0.1-0.1,0.2-0.2,0.3-0.3c0.7-0.8,0.8-1.9,0.8-4.2c0-0.3,0-0.5,0-0.7
	l3.2,0.4c0,0.1,0.1,0.2,0.1,0.2C95.6,24.6,97.6,26.1,97.6,26.1z"/>
<path class="st1" d="M89.9,49L38,42.7l0.6-5.3l28.3,3.4c0.9,1.6,1.4,1.2,1.7,0.2l21.2,2.6c0.2,0.4,0,1.1-0.1,1.8
	c-1.8,0.9-1.3,1.4-1.6,2C89,47.9,89.5,48.5,89.9,49z"/>
<path class="st1" d="M85.1,69.4l-4.9-0.6c-0.8-1.5-2-2.1-2.4-2.2c-0.4,0.1-1.4,1.1-1.6,1.4c-0.2,0.3-0.5,0.1-1,0
	c-0.4-0.8-1.4-1.1-2-1.2c-0.6,0.3-1.9,0.5-3.2,0.6l-56.5-7C13,58.3,10.5,56,10.5,56l-2.3-0.8l0-0.7l74.4,9.2
	c0.1,1.4,0.6,2.6,0.9,3.2C84.9,68.5,85.1,69,85.1,69.4z"/>
<path class="st1" d="M56.4,71.2c-0.4,0.4-0.8,0.8-1.3,1.1c-2,0.6-3,2.5-3.5,3.6l-4.6-0.6c0,0,0,0,0-0.1c-1.3-0.8-2.4-3.7-2.4-3.7
	l-1.3-1.1c0,0-1.5,0-2.4,0c-0.2,0.8-0.5,1-1.4,1.6c-2.9-1.2-2.9-2.5-3-3.4L56.4,71.2z"/>
<path class="st1" d="M56.5,71.4L56.5,71.4l-20-2.5l0-0.1c0-0.1,0-0.2,0-0.3c-2.3-1.5-2.9-2.7-3-3h-2.9l-0.1,0.9l-5.8-0.6l-6.9-4.1
	l-4.2-0.5l0-0.1c0-0.1,0-0.3-0.1-0.5l0-0.2l0.2,0l57.5,7.1l-1,0.1c-0.3,0-0.6,0.1-0.8,0.1c-0.6,0.1-1,0.1-1.4,0.2
	c0.3,2.5-2.2,3-3.3,3.2c-0.1,0-0.2,0-0.3,0.1l0,0l0,0c-1.5-0.6-4-1.2-4.8-1.2C58.1,70,57.3,70.6,56.5,71.4L56.5,71.4z M36.7,68.7
	l19.7,2.4c0.8-0.8,1.6-1.4,3-1.4c0.8,0.1,3.3,0.6,4.8,1.2c0.1,0,0.2,0,0.3-0.1c1.1-0.2,3.4-0.7,3.1-3l0-0.1l0.1,0
	c0.3-0.1,0.8-0.1,1.3-0.2l-55.2-6.8c0,0.1,0,0.1,0,0.2l4.1,0.5l6.9,4.1l5.4,0.6l0.1-0.9h3.3l0,0.1c0,0,0.4,1.3,3,3l0,0l0,0.1
	C36.6,68.5,36.6,68.6,36.7,68.7z"/>
<path class="st1" d="M82.8,63.9l-0.2,0L8.1,54.7l0-1.5c-0.1-0.1-0.3-0.6-0.8-1.2l0-0.1c-0.2-1.4-0.7-2.2-1.1-2.8l-0.2-0.2l79,9.8
	l-0.2,0.2c-1.6,1.2-2.2,2.8-2,4.9L82.8,63.9z M8.3,54.5l74.2,9.2c-0.2-2,0.5-3.6,1.9-4.8L6.6,49.2c0.4,0.6,0.8,1.4,1,2.7
	c0.5,0.7,0.8,1.2,0.8,1.2l0,0L8.3,54.5z"/>
<path class="st1" d="M88,54L88,54L4.9,43.7L5,43.4l0.1,0l32,4l2.5-20.6l0.1,0c2.1,0.1,4.1,0.2,6.1,0.2c3.8,0,6.5-0.2,7.5-0.3
	c0.2,0,0.4,0,0.5,0H54l0,0.1c0,0.4,1,0.8,1.9,0.8c0.2,0,0.5,0,0.6-0.1l0.1,0l0.1,0c1.3,0.9,2.7,1,3.7,1c0.2,0,0.5,0,0.7,0
	c0.2,0,0.4,0,0.5,0c0.3,0,0.5,0,0.6,0.1l0.9,0.2H62c-0.5,0-1.1,0.3-1.6,0.8l0,0l-20.5-2.5l-0.6,5l27,3.3l0,0.1c0,1,0,2.1,0.1,3.1
	c0,0.4,0,0.8,0.1,1.2c0.2,0.4,0.3,0.8,0.5,1.1l0.1,0.2l-28.4-3.4l-0.6,5L89.8,49l0,0.1c0.3,0.6,0.5,1.1,0.6,1.5c0,0.1,0,0.2,0.1,0.2
	c0.2,0.6-0.2,0.8-0.8,1c-0.1,0-0.2,0.1-0.3,0.1c-0.1,0.1-0.1,0.3-0.1,0.4c0.1,0.1,0.4,0.2,0.5,0.2H90l-0.5,1.4h-1.2
	C88.3,53.8,88.2,53.8,88,54L88,54z M37.4,47.5l50.6,6.3c0.1-0.2,0.3-0.2,0.4-0.2h1l0.3-0.9c-0.2,0-0.4-0.1-0.5-0.3
	c-0.1-0.2-0.1-0.4,0.1-0.7l0,0l0,0c0.1-0.1,0.2-0.1,0.3-0.1c0.6-0.3,0.8-0.4,0.6-0.7c0-0.1,0-0.1-0.1-0.2c-0.1-0.3-0.2-0.8-0.6-1.3
	l-51.7-6.3L37.4,47.5z M38.6,37.4l28,3.4c-0.1-0.3-0.3-0.6-0.4-0.9l0,0c0-0.4,0-0.8-0.1-1.2c0-0.9-0.1-2-0.1-3l-26.8-3.3L38.6,37.4z
	 M42.2,27.1l18.1,2.2c0.3-0.3,0.6-0.5,0.9-0.6c-0.1,0-0.2,0-0.3,0c-0.2,0-0.5,0-0.7,0c-1,0-2.4-0.1-3.8-1.1
	c-0.2,0.1-0.4,0.1-0.6,0.1c-0.8,0-1.9-0.3-2.1-0.9c-0.1,0-0.2,0-0.3,0c-1,0.1-3.7,0.3-7.5,0.3C44.7,27.2,43.5,27.2,42.2,27.1z"/>
<path d="M71,30.7L68,30.3c0.7-0.2,1.3-0.2,1.6-0.2C70.2,30.1,70.7,30.4,71,30.7z"/>
<path class="st1" d="M71.3,30.9l-4-0.5l0.7-0.2c0.8-0.2,1.5-0.2,1.6-0.2c0,0,0.1,0,0.1,0c0.6,0,1.1,0.3,1.4,0.6L71.3,30.9z
	 M68.9,30.3l1.7,0.2c-0.2-0.2-0.6-0.3-1-0.2C69.4,30.3,69.2,30.3,68.9,30.3z"/>
<path class="st1" d="M90.1,43.8l-0.2,0l-21.4-2.6l0-0.1c0.3-0.9,0.4-2.1,0.4-2.6c-0.5-1-0.7-1.9-0.6-2.7l0-0.1l6.7,0.8l0,0.1
	c0.7,1.6,0.1,2.2-0.2,2.4c-0.3,0.4-0.4,0.8-0.3,1c0.2,0.3,0.7,0.4,0.9,0.4c0.1,0,0.2,0,0.3,0c0.2-0.1,0.4-0.3,0.5-0.5
	c0.4-0.4,0.8-0.9,1.5-1.1c0.7-0.3,1.5-0.8,2.1-1.5l0,0l12,1.5l-0.3,0.2c-0.4,0.3-0.8,0.5-1,0.6c0.1,0.8,0.1,1.6-0.1,2.7
	c-0.1,0.7-0.5,1-0.7,1.2c-0.1,0.1-0.2,0.1-0.2,0.2l0,0c0,0,0,0,0.1,0.1c0.1,0.1,0.2,0.2,0.2,0.3L90.1,43.8z M68.8,41l20.8,2.5
	c0,0,0,0,0,0c-0.1,0-0.2-0.1-0.2-0.2c0-0.1,0.1-0.2,0.2-0.4c0.2-0.2,0.5-0.5,0.7-1.1c0.2-1,0.3-1.8,0.1-2.7l0-0.1l0.1,0
	c0,0,0.3-0.1,0.7-0.4L80,37.3c-0.6,0.7-1.4,1.2-2.2,1.5c-0.7,0.2-1.1,0.7-1.4,1.1c-0.2,0.2-0.4,0.5-0.6,0.6l0,0c-0.1,0-0.3,0-0.4,0
	c-0.3,0-0.9,0-1.1-0.5c-0.2-0.3-0.1-0.8,0.3-1.3l0,0l0,0c0.3-0.1,0.8-0.6,0.2-2l-6.3-0.8c0,0.8,0.2,1.6,0.6,2.5l0,0
	C69.2,38.9,69.1,40.1,68.8,41z"/>
<g>
	<path class="st1" d="M95,23.1l-3.5-0.4l0-0.1c0-0.4,0.1-1,0.6-1c0.2,0,0.4,0.1,0.6,0.3c0,0,0.1,0.1,0.1,0.1c0.4-0.3,0.7-0.5,1-0.5
		c0.6,0,0.9,0.6,1.2,1.5L95,23.1z M91.8,22.4l2.9,0.4c-0.2-0.6-0.5-1.1-0.9-1.1c-0.2,0-0.5,0.2-0.9,0.5l-0.1,0.1l-0.1,0
		c-0.1,0-0.1-0.1-0.2-0.1c-0.1-0.1-0.3-0.2-0.4-0.2C91.9,21.8,91.8,22.1,91.8,22.4z"/>
</g>
<path class="st1" d="M93.8,33.6l-9.9-1.2l0.1-0.2c0.4-0.8,0.9-1.5,1.3-2c0.1-0.2,0.2-0.4,0.3-0.5l0,0l0.1,0c3.2-0.7,4.1-1.4,4.7-2.1
	l0,0l0.1,0l5.5,0.7l-0.1,0.2c-0.3,0.4-0.5,0.6-0.7,0.8l0,0c-1.4,0.7-1.4,2.9-1.4,4c0,0,0,0.1,0.1,0.1L93.8,33.6z M84.3,32.2l9.1,1.1
	c0,0,0,0,0,0c0-1.1,0-3.5,1.5-4.2c0.1-0.1,0.3-0.4,0.5-0.6l-5-0.6c-0.6,0.6-1.6,1.3-4.7,2.1c-0.1,0.1-0.2,0.2-0.3,0.4
	C85.2,30.8,84.7,31.5,84.3,32.2z"/>
<path class="st1" d="M51.7,79.3L51.7,79.3c-1.9-0.3-3.3-0.9-3.9-1.2l0,0l0-0.1c-0.1-0.5-0.8-1.4-0.8-1.4l0,0l0-0.1
	c0,0,0.1-0.3-0.1-1.1l0-0.2l4.9,0.6l-0.1,0.1c-0.1,0.3-0.2,0.6-0.2,0.7C51.9,78.3,51.9,78.8,51.7,79.3L51.7,79.3z M47.9,77.9
	c0.5,0.3,1.9,0.9,3.6,1.1c0.1-0.3,0.1-0.8-0.3-2.2l0,0l0,0c0-0.2,0.1-0.4,0.2-0.6l-4.3-0.5c0.1,0.5,0.1,0.8,0,0.9
	C47.3,76.7,47.8,77.3,47.9,77.9z"/>
</svg>
