<?xml version="1.0" encoding="utf-8"?>
<!-- Generator: Adobe Illustrator 24.1.0, SVG Export Plug-In . SVG Version: 6.00 Build 0)  -->
<svg version="1.1" id="Layer_1" xmlns="http://www.w3.org/2000/svg" xmlns:xlink="http://www.w3.org/1999/xlink" x="0px" y="0px"
	 viewBox="0 0 100 100" style="enable-background:new 0 0 100 100;" xml:space="preserve">
<style type="text/css">
	.st0{fill:#FFFFFF;}
</style>
<g>
	<path class="st0" d="M58.8,16c-2.7,0-5.5,0.2-8.1,0.7c-1.3,0.2-2.1,1.4-1.9,2.7c0.2,1.3,1.4,2.1,2.7,1.9c2.4-0.4,4.8-0.6,7.3-0.6
		c19.7,0,35.7,14.1,35.7,31.4c0,6.9-2.5,13.5-7.3,19c-0.5,0.5-0.7,1.3-0.5,2l2.2,11.6l-11.7-4c-0.5-0.2-1-0.2-1.5,0
		c-4.2,1.5-12.4,2.8-16.9,2.8c-19.7,0-35.7-14.1-35.7-31.4c0-1.3-1-2.3-2.3-2.3c-1.3,0-2.3,1-2.3,2.3c0,19.9,18.1,36,40.4,36
		c4.8,0,12.8-1.3,17.6-2.8l14.7,5c0.2,0.1,0.5,0.1,0.8,0.1c0.6,0,1.1-0.2,1.5-0.6c0.6-0.5,0.9-1.4,0.8-2.2l-2.7-14.4
		c5-6.2,7.7-13.5,7.7-21.1C99.2,32.2,81.1,16,58.8,16z"/>
	<path class="st0" d="M33.2,47.3c0.6,0.3,1.4,0.3,2-0.1c0.6-0.4,0.9-1.1,0.7-1.8l-2.1-12.4l9-8.8c0.5-0.5,0.7-1.2,0.5-1.9
		c-0.2-0.7-0.8-1.2-1.5-1.3L29.3,19L23.7,7.7c-0.3-0.6-1-1-1.7-1s-1.4,0.4-1.7,1L14.7,19L2.3,20.9C1.5,21,1,21.4,0.7,22.1
		c-0.2,0.7,0,1.4,0.5,1.9l9,8.8L8.1,45.3C8,46,8.3,46.7,8.9,47.1c0.3,0.2,0.7,0.4,1.1,0.4c0.3,0,0.6-0.1,0.9-0.2L22,41.4L33.2,47.3z
		"/>
	<path class="st0" d="M76.3,37.5H41.5c-1.3,0-2.3,1-2.3,2.3c0,1.3,1,2.3,2.3,2.3h34.8c1.3,0,2.3-1,2.3-2.3
		C78.6,38.5,77.6,37.5,76.3,37.5z"/>
	<path class="st0" d="M78.6,51.9c0-1.3-1-2.3-2.3-2.3H41.5c-1.3,0-2.3,1-2.3,2.3c0,1.3,1,2.3,2.3,2.3h34.8
		C77.6,54.3,78.6,53.2,78.6,51.9z"/>
	<path class="st0" d="M41.5,61.7c-1.3,0-2.3,1-2.3,2.3c0,1.3,1,2.3,2.3,2.3h14.1c1.3,0,2.3-1,2.3-2.3c0-1.3-1-2.3-2.3-2.3H41.5z"/>
</g>
</svg>
