<?xml version="1.0" encoding="utf-8"?>
<!-- Generator: Adobe Illustrator 24.1.0, SVG Export Plug-In . SVG Version: 6.00 Build 0)  -->
<svg version="1.1" id="Layer_1" xmlns="http://www.w3.org/2000/svg" xmlns:xlink="http://www.w3.org/1999/xlink" x="0px" y="0px"
	 viewBox="0 0 100 100" style="enable-background:new 0 0 100 100;" xml:space="preserve">
<style type="text/css">
	.st0{fill:#FFFFFF;}
</style>
<path class="st0" d="M67.8,76.1l-2.7-1.5c-0.6,1-1,2-1.5,3.1l2.9,1.2C66.9,77.9,67.3,77,67.8,76.1z"/>
<path class="st0" d="M71.1,70.9l-2.6-1.8c-0.6,0.9-1.2,1.8-1.8,2.7l2.6,1.7C70,72.6,70.6,71.7,71.1,70.9z"/>
<path class="st0" d="M74.8,65.6l-2.6-1.7c-0.5,0.8-1.1,1.7-1.7,2.6l2.6,1.8C73.6,67.3,74.2,66.4,74.8,65.6z"/>
<path class="st0" d="M77.9,59.8l-2.8-1.3c-0.4,0.9-0.9,1.9-1.4,2.8l2.8,1.5C76.9,61.8,77.4,60.8,77.9,59.8z"/>
<path class="st0" d="M80.4,53.8l-2.9-1.1c-0.4,1-0.8,1.9-1.2,2.9l2.9,1.2C79.7,55.8,80.1,54.8,80.4,53.8z"/>
<path class="st0" d="M84.2,38c0.1-1,0.1-2.1,0.1-3l0-0.3l-3.1,0l0,0.3c0,0.9,0,1.8-0.1,2.7L84.2,38z"/>
<path class="st0" d="M80.5,28.7c0.2,1,0.4,2,0.5,3l3.1-0.4c-0.1-1.1-0.3-2.2-0.6-3.3L80.5,28.7z"/>
<path class="st0" d="M78.5,23c0.4,0.9,0.8,1.8,1.2,2.8l2.9-1c-0.4-1.1-0.8-2.1-1.3-3.1L78.5,23z"/>
<path class="st0" d="M75.3,18c0.6,0.8,1.2,1.6,1.7,2.5l2.6-1.7c-0.6-0.9-1.2-1.9-1.9-2.7L75.3,18z"/>
<path class="st0" d="M71.1,13.7c0.8,0.6,1.5,1.3,2.2,2l2.2-2.2c-0.8-0.8-1.6-1.5-2.5-2.3L71.1,13.7z"/>
<path class="st0" d="M70.4,9.2c-0.9-0.6-1.9-1.2-2.9-1.7l-1.5,2.7c0.9,0.5,1.8,1,2.6,1.6L70.4,9.2z"/>
<path class="st0" d="M64.5,6.1c-1-0.4-2.1-0.8-3.1-1.2l-0.9,3c1,0.3,1.9,0.7,2.8,1.1L64.5,6.1z"/>
<path class="st0" d="M54.5,6.6c1,0.1,2,0.3,3,0.5l0.7-3.1c-1.1-0.2-2.2-0.4-3.3-0.6L54.5,6.6z"/>
<path class="st0" d="M65.6,85.8v-0.1c0-1.6-1.3-2.9-2.9-3c-0.1,0-0.1,0-0.2,0H37.4c-1.6-0.1-3,1.2-3,2.8c0,0.1,0,0.1,0,0.2v0.1
	c0,1.7,1.3,3.1,3.1,3.2h25.1C64.3,89,65.7,87.5,65.6,85.8z"/>
<path class="st0" d="M38.7,90.6c-1.5,0-2.8,1.3-2.8,2.8c0,0,0,0.1,0,0.1v0.1c-0.1,1.6,1.1,3.1,2.7,3.2h22.6c1.6-0.1,2.9-1.5,2.7-3.2
	v-0.1c0.1-1.5-1.1-2.9-2.6-3c0,0-0.1,0-0.1,0H38.7z"/>
<path class="st0" d="M37.5,40.6c0,6.9,5.6,12.5,12.5,12.5v-25C43.1,28.1,37.5,33.7,37.5,40.6z"/>
<path class="st0" d="M35.8,81.5c0.4-0.1,0.9-0.2,1.3-0.2H50V62.5c-0.9,0-1.8-0.1-2.7-0.2l-0.7-3.3c-1-0.2-2-0.5-3-0.8l-2.2,2.5
	c-1.6-0.7-3.2-1.6-4.6-2.7l1-3.2c-0.8-0.7-1.5-1.4-2.2-2.2l-3.2,1c-1.1-1.4-2-3-2.7-4.6l2.5-2.2c-0.3-1-0.6-2-0.8-3l-3.4-0.7V38
	l3.4-0.7c0.2-1,0.5-2,0.8-3l-2.5-2.2c0.7-1.6,1.6-3.2,2.7-4.6l3.2,1c0.7-0.8,1.4-1.5,2.2-2.2l-1-3.2c1.4-1.1,3-2,4.6-2.7l2.2,2.5
	c1-0.3,2-0.6,3-0.8l0.7-3.3c0.9-0.1,1.8-0.2,2.7-0.2v-14C31.9,4.7,17.2,17.8,17.2,35c0,8,3.2,19.1,8.6,28.5
	C28.7,68.7,35,75.4,35.8,81.5z"/>
<path class="st0" d="M53.1,18.8c0,2,1.3,3.7,3.1,4.4v8.1h-4.7V50h3.1v6.2c0,0.9,0.7,1.6,1.6,1.6c0,0,0,0,0,0h4.7v1.8
	c-2.4,0.9-3.7,3.5-2.9,6c0.9,2.4,3.5,3.7,6,2.9c2.4-0.9,3.7-3.5,2.9-6c-0.5-1.3-1.5-2.4-2.9-2.9v-3.4c0-0.9-0.7-1.6-1.6-1.6
	c0,0,0,0,0,0h-4.7V50h6.2v-3.1h9.7c0.9,2.4,3.5,3.7,6,2.9c2.4-0.9,3.7-3.5,2.9-6c-0.9-2.4-3.5-3.7-6-2.9c-1.3,0.5-2.4,1.5-2.9,2.9
	h-9.7v-6.2h6.2c0.9,0,1.6-0.7,1.6-1.6c0,0,0,0,0,0v-6.5c2.4-0.9,3.7-3.5,2.9-6s-3.5-3.7-6-2.9s-3.7,3.5-2.9,6
	c0.5,1.3,1.5,2.4,2.9,2.9v5h-4.7v-3.1h-4.7v-8.1c2.4-0.9,3.7-3.5,2.8-6c-0.9-2.4-3.5-3.7-6-2.8C54.4,15,53.1,16.8,53.1,18.8z"/>
</svg>
