<?xml version="1.0" encoding="utf-8"?>
<!-- Generator: Adobe Illustrator 24.1.0, SVG Export Plug-In . SVG Version: 6.00 Build 0)  -->
<svg version="1.1" id="Layer_1" xmlns="http://www.w3.org/2000/svg" xmlns:xlink="http://www.w3.org/1999/xlink" x="0px" y="0px"
	 viewBox="0 0 100 100" style="enable-background:new 0 0 100 100;" xml:space="preserve">
<style type="text/css">
	.st0{fill:#FFFFFF;}
</style>
<g>
	<circle class="st0" cx="50.2" cy="10.6" r="10"/>
	<path class="st0" d="M42.7,54.3c0-2.1,0-16.4,0-18.5c0-4.5,4-8.1,8.6-7.5c2.1,0.3,3.9,1.4,5.1,3c7.8,0,7.2,0,8.6,0
		c-1.4-4.5-4.6-8-8.9-9.9c-1.7,0.9-3.7,1.4-5.9,1.4c-2,0-4-0.5-5.7-1.4c-5.7,2.6-9.7,8.3-9.7,14.7c0,0.2,0,17.7,0,17.9
		C36.1,54.4,36.5,54.3,42.7,54.3z"/>
	<path class="st0" d="M65.7,63.3V50.1c0-2.1-1.7-3.9-3.9-3.9c-2.1,0-3.9,1.7-3.9,3.9v13.5c0,4.5-4,8.1-8.6,7.5
		c-2.1-0.3-3.9-1.4-5.1-3c-8.6,0-7.1,0-8.6,0c1.4,4.5,4.8,8.1,8.9,9.9c1.7-0.9,3.7-1.4,5.9-1.4c2,0,4,0.5,5.7,1.4
		C61.6,75.5,65.7,69.8,65.7,63.3z"/>
	<circle class="st0" cx="50.2" cy="89" r="10"/>
	<path class="st0" d="M78.4,44.1c-2.4-5.7-8.1-9.7-14.6-9.7c-2,0-11.3,0-17.9,0c-0.3,1.1-0.2,1.5-0.2,7.7c1.8,0-2.6,0,18.5,0
		c4.5,0,8.1,4,7.5,8.6c-0.3,2.1-1.4,3.9-3,5.1c0,8.1,0,7.1,0,8.6c4.3-1.2,8-4.5,9.9-8.9c-0.9-1.7-1.4-3.7-1.4-5.9
		C77,47.8,77.4,45.8,78.4,44.1z"/>
	<circle class="st0" cx="89.4" cy="49.8" r="10"/>
	<path class="st0" d="M22,55.5c2.4,5.7,8.1,9.6,14.6,9.6c1.2,0,2,0,2.6,0c0.3,0,0.6,0,0.8,0c0.2,0,0.3,0,0.3,0c1.7,0,5.6,0,14.1,0
		c0.3-1.2,0.2-1.5,0.2-7.7c-6.9,0-11.6,0-18.5,0c-4.5,0-8.1-4-7.5-8.6c0.3-2.1,1.4-3.9,3-5.1c0-8,0-7.1,0-8.6
		c-4.3,1.4-8,4.6-9.9,8.9c0.9,1.7,1.4,3.7,1.4,5.9C23.4,51.8,23,53.8,22,55.5z"/>
	<circle class="st0" cx="11" cy="49.8" r="10"/>
</g>
</svg>
