<?xml version="1.0" encoding="utf-8"?>
<!-- Generator: Adobe Illustrator 24.1.0, SVG Export Plug-In . SVG Version: 6.00 Build 0)  -->
<svg version="1.1"
	 id="Layer_1" xmlns:cc="http://creativecommons.org/ns#" xmlns:dc="http://purl.org/dc/elements/1.1/" xmlns:inkscape="http://www.inkscape.org/namespaces/inkscape" xmlns:rdf="http://www.w3.org/1999/02/22-rdf-syntax-ns#" xmlns:sodipodi="http://sodipodi.sourceforge.net/DTD/sodipodi-0.dtd" xmlns:svg="http://www.w3.org/2000/svg"
	 xmlns="http://www.w3.org/2000/svg" xmlns:xlink="http://www.w3.org/1999/xlink" x="0px" y="0px" viewBox="0 0 100 100"
	 style="enable-background:new 0 0 100 100;" xml:space="preserve">
<style type="text/css">
	.st0{fill:#FFFFFF;}
</style>
<g>
	<path class="st0" d="M75.4,2.4c-7.9,0.5-14.9,5.7-17.6,13.4c-1.5,4.4,5,7,6.9,2.4c2-5.6,7.4-9.1,13.4-8.5
		C84,10.4,88.7,15,89.4,20.9S86.7,32.4,81,34.4c-4.5,1.7-2.1,8.4,2.4,6.9c8.7-3.1,14.2-12,13.1-21.2c-1-9.2-8.5-16.5-17.7-17.4
		C77.6,2.4,76.5,2.3,75.4,2.4L75.4,2.4z M74.7,20.5c-0.3,0-0.7,0.1-1,0.2l-69.1,23c-1.9,0.7-2.9,2.7-2.3,4.7
		c0.3,0.9,0.9,1.6,1.7,2.1l29.5,14.8L48.3,95c0.9,1.7,3,2.6,4.9,1.6c0.8-0.5,1.5-1.2,1.9-2.1l23-69.1c0.6-1.9-0.3-4-2.3-4.5
		C75.4,20.7,75.1,20.5,74.7,20.5L74.7,20.5z"/>
</g>
</svg>
