<?xml version="1.0" encoding="utf-8"?>
<!-- Generator: Adobe Illustrator 24.1.0, SVG Export Plug-In . SVG Version: 6.00 Build 0)  -->
<svg version="1.1" id="Layer_1" xmlns="http://www.w3.org/2000/svg" xmlns:xlink="http://www.w3.org/1999/xlink" x="0px" y="0px"
	 viewBox="0 0 100 100" style="enable-background:new 0 0 100 100;" xml:space="preserve">
<style type="text/css">
	.st0{fill:#FFFFFF;}
</style>
<g>
	<polygon class="st0" points="28,72.7 11.3,72.7 11.3,69.4 24.6,69.4 24.6,62.6 28,62.6 	"/>
	<polygon class="st0" points="24.6,62.6 12.2,62.6 7.2,57.6 1.2,57.6 1.2,54.3 8.6,54.3 13.6,59.3 24.6,59.3 	"/>
	<rect x="21.2" y="81" class="st0" width="10.1" height="3.3"/>
	<polygon class="st0" points="44.7,92.7 41.3,92.7 41.3,75.4 44.7,71.9 44.7,60.9 48,60.9 48,73.3 44.7,76.7 	"/>
	<polygon class="st0" points="41.8,77.2 34.6,70 34.6,49.3 38,49.3 38,68.6 44.2,74.8 	"/>
	<rect x="24.6" y="49.3" class="st0" width="3.3" height="10.1"/>
	<polygon class="st0" points="75.5,66 63.1,66 63.1,62.6 74.1,62.6 79.1,57.6 91.5,57.6 91.5,60.9 80.5,60.9 	"/>
	<polygon class="st0" points="73.1,87.7 69.8,87.7 69.8,74.3 84.8,74.3 84.8,77.7 73.1,77.7 	"/>
	<polygon class="st0" points="59.8,91.1 56.3,91.1 56.3,77 59.8,73.7 59.8,66 63.1,66 63.1,75.1 59.8,78.4 	"/>
	<polygon class="st0" points="63.1,62.6 59.8,62.6 59.8,55.2 68.5,46.4 71,48.7 63.1,56.6 	"/>
	<rect x="91.5" y="49.3" class="st0" width="3.3" height="8.4"/>
	<rect x="44.7" y="49.3" class="st0" width="3.3" height="8.4"/>
	<circle class="st0" cx="26.2" cy="60.9" r="3.3"/>
	<circle class="st0" cx="46.4" cy="59.3" r="3.3"/>
	<circle class="st0" cx="61.4" cy="64.3" r="3.3"/>
	<circle class="st0" cx="58" cy="92.7" r="3.3"/>
	<circle class="st0" cx="93.2" cy="59.3" r="3.3"/>
	<circle class="st0" cx="86.5" cy="76" r="3.3"/>
	<circle class="st0" cx="71.4" cy="89.4" r="3.3"/>
	<circle class="st0" cx="43.1" cy="94.4" r="3.3"/>
	<circle class="st0" cx="9.5" cy="71" r="3.3"/>
	<circle class="st0" cx="19.6" cy="82.7" r="3.3"/>
	<circle class="st0" cx="33" cy="82.7" r="3.3"/>
	<path class="st0" d="M70.6,14c-4.1-5.2-9-9-14.5-10.6c1.9,2.9,3.5,7,4.9,11.9C64.5,15,67.7,14.6,70.6,14z"/>
	<path class="st0" d="M60.5,32.1c-0.5-5-1.3-9.4-2.1-13.3c-2.9,0.2-5.8,0.3-8.7,0.3c-2.9,0-5.8-0.1-8.7-0.3
		c-0.9,3.9-1.6,8.2-2.1,13.3c3.5,0.3,7.2,0.4,10.8,0.4S57,32.3,60.5,32.1z"/>
	<path class="st0" d="M37.2,2.4c-6.6,1.8-12.7,4.9-18,9.1c1.8,0.6,3.9,1.2,6,1.7C28.6,8.6,32.7,4.8,37.2,2.4z"/>
	<path class="st0" d="M49.7,35.9c-3.9,0-7.6-0.1-11.1-0.4c-0.3,4.3-0.5,8.9-0.5,13.8h23.4c0-4.9-0.2-9.5-0.5-13.8
		C57.3,35.8,53.5,35.9,49.7,35.9z"/>
	<path class="st0" d="M28.8,14c3,0.5,6.2,1,9.6,1.3c1.3-4.9,2.9-9.1,4.9-12C37.8,5,32.9,8.8,28.8,14z"/>
	<path class="st0" d="M35.6,31.8c0.5-4.7,1.2-9.2,2.1-13.3c-3.9-0.3-7.5-0.9-10.9-1.6c-2.4,3.6-4.3,7.8-5.8,12.4
		C25.4,30.5,30.3,31.3,35.6,31.8z"/>
	<path class="st0" d="M49.7,15.9c2.7,0,5.4-0.1,7.8-0.2c-2.4-8.5-5.4-13.2-7.8-13.2c-2.5,0-5.5,4.7-7.8,13.2
		C44.3,15.7,47,15.9,49.7,15.9z"/>
	<path class="st0" d="M6,28.2c-3.1,6.4-4.8,13.5-4.8,21.1h13.4c0-6.1,0.7-12,2.1-17.3C12.8,30.8,9.2,29.6,6,28.2z"/>
	<path class="st0" d="M64.1,35.1c0.4,4.6,0.6,9.4,0.6,14.1h16.7c0-5.8-0.7-11.5-2-16.6C74.7,33.8,69.6,34.6,64.1,35.1z"/>
	<path class="st0" d="M83,14c-2,0.9-4.4,1.6-7,2.1c2.2,3.7,4.2,7.9,5.6,12.4c3.7-1,7.1-2.1,10.1-3.4C89.4,21.1,86.4,17.2,83,14z"/>
	<path class="st0" d="M82.7,31.9c1.4,5.5,2.1,11.2,2.1,17.3h13.4c0-7.6-1.7-14.7-4.8-21.1C90.2,29.6,86.6,30.8,82.7,31.9z"/>
	<path class="st0" d="M72.7,16.9c-3.4,0.7-7.2,1.3-10.9,1.6c0.9,4.1,1.6,8.6,2.1,13.3c5.1-0.5,10.1-1.4,14.7-2.4
		C77,24.8,75.1,20.6,72.7,16.9z"/>
	<path class="st0" d="M62.2,2.4c4.5,2.5,8.6,6.2,11.9,10.9c2.2-0.5,4.2-1.1,6-1.7C75,7.3,68.9,4.2,62.2,2.4z"/>
	<path class="st0" d="M35.2,35.1c-5.5-0.5-10.6-1.4-15.3-2.5c-1.3,5.1-2,10.7-2,16.6h16.7C34.6,44.5,34.8,39.8,35.2,35.1z"/>
	<path class="st0" d="M23.2,16.2c-2.5-0.6-4.8-1.4-7-2.1c-3.4,3.3-6.4,7.1-8.8,11.2c3,1.3,6.4,2.5,10.1,3.4
		C19.1,24.1,21,19.9,23.2,16.2z"/>
</g>
</svg>
