<?xml version="1.0" encoding="utf-8"?>
<!-- Generator: Adobe Illustrator 24.1.0, SVG Export Plug-In . SVG Version: 6.00 Build 0)  -->
<svg version="1.1" id="Layer_1" xmlns="http://www.w3.org/2000/svg" xmlns:xlink="http://www.w3.org/1999/xlink" x="0px" y="0px"
	 viewBox="0 0 100 100" style="enable-background:new 0 0 100 100;" xml:space="preserve">
<style type="text/css">
	.st0{fill:#FFFFFF;}
</style>
<path class="st0" d="M98.3,90.6L64.8,33.2v-6.6h16.9c1.3,0,2.4-1.1,2.4-2.4c0,0,0,0,0,0V9.6c0-1.3-1.1-2.4-2.4-2.4c0,0,0,0,0,0H62.4
	C61,7.2,60,8.3,60,9.6c0,0,0,0,0,0v23.4L42.6,59L30.2,46.6c-0.9-0.9-2.5-0.9-3.4,0c-0.2,0.2-0.3,0.3-0.4,0.5L2.2,90.7
	C1.6,91.9,2,93.3,3.2,94c0.4,0.2,0.8,0.3,1.2,0.3h91.9c1.3,0,2.4-1.1,2.4-2.4C98.6,91.4,98.5,91,98.3,90.6L98.3,90.6z M64.8,12.1
	h14.5v9.7H64.8V12.1z M8.4,89.4l20.6-37.1l12.2,12.2c0.5,0.5,1.2,0.8,1.9,0.7c0.7-0.1,1.4-0.5,1.8-1.1l17.2-25.8L92,89.4H8.4z"/>
</svg>
